<svg width="180" height="66" viewBox="0 0 180 66" fill="none" xmlns="http://www.w3.org/2000/svg">
<path d="M48.511 54.5289C46.6024 54.5188 44.8294 54.2409 43.192 53.6954C41.5846 53.1202 40.1872 52.3225 38.9996 51.3022C37.8121 50.2819 36.9088 49.0991 36.2897 47.7537C36.0536 47.2753 36.041 46.8428 36.2518 46.4562C36.4926 46.04 36.8818 45.7587 37.4194 45.6125C37.8376 45.4954 38.2399 45.5423 38.6265 45.7531C39.0429 45.9641 39.3544 46.2789 39.5609 46.6975C40.0037 47.5647 40.6557 48.3436 41.5169 49.0341C42.3781 49.7246 43.4041 50.2669 44.5949 50.6609C45.7859 51.0251 47.0972 51.211 48.5286 51.2186C50.1092 51.227 51.5122 50.981 52.7376 50.4805C53.9632 49.9502 54.9216 49.1948 55.6127 48.2143C56.3338 47.2042 56.6982 45.9833 56.7058 44.5519C56.7155 42.7327 56.0528 41.1634 54.7178 39.8441C53.3827 38.5248 51.2847 37.6786 48.4236 37.3055C44.9366 36.8695 42.2136 35.7813 40.2545 34.0412C38.2956 32.2712 37.3228 30.1188 37.3363 27.5838C37.346 25.7647 37.8315 24.1866 38.793 22.8497C39.7843 21.5129 41.1317 20.4912 42.8354 19.7845C44.5393 19.0479 46.4946 18.6855 48.7015 18.6973C50.3417 18.706 51.8314 18.9823 53.1706 19.5262C54.5099 20.0404 55.6693 20.7325 56.6488 21.6025C57.6584 22.443 58.4736 23.3718 59.0945 24.3891C59.3901 24.8678 59.4772 25.3306 59.3555 25.7773C59.2636 26.2241 59.0083 26.5657 58.5896 26.8021C58.1411 27.0085 57.6787 27.0358 57.2023 26.8842C56.7558 26.7327 56.4143 26.4476 56.178 26.0288C55.7343 25.3405 55.1711 24.6963 54.4883 24.0962C53.8356 23.4665 53.033 22.9701 52.0805 22.6072C51.1281 22.2442 49.981 22.0443 48.6391 22.0073C46.2832 21.9948 44.3868 22.4917 42.9499 23.4981C41.5132 24.4746 40.7898 25.9172 40.7796 27.8258C40.7742 28.8398 41.0376 29.7806 41.5698 30.6483C42.1022 31.4862 42.9781 32.2215 44.1975 32.8543C45.4468 33.4574 47.1145 33.9136 49.2005 34.2229C52.9255 34.7796 55.6779 35.9424 57.4579 37.7114C59.2679 39.4508 60.1654 41.7221 60.1505 44.5254C60.142 46.1358 59.8362 47.5657 59.2331 48.8151C58.6598 50.0646 57.834 51.119 56.7558 51.9781C55.7076 52.8076 54.4666 53.4422 53.0327 53.8819C51.6287 54.3218 50.1214 54.5375 48.511 54.5289ZM75.0442 54.4463C72.7478 54.4341 70.693 53.8863 68.8795 52.803C67.0662 51.6899 65.6277 50.1911 64.5641 48.3066C63.5303 46.4223 63.0197 44.3021 63.0322 41.9461C63.0449 39.5603 63.593 37.4309 64.6766 35.5578C65.79 33.6848 67.289 32.2165 69.1735 31.1529C71.0582 30.0595 73.1785 29.519 75.5345 29.5315C77.8904 29.544 79.99 30.1069 81.8331 31.2202C83.7062 32.3038 85.1746 33.7878 86.2382 35.6724C87.3317 37.557 87.887 39.6924 87.9041 42.0783L86.5116 43.1445C86.5002 45.2918 85.983 47.2275 84.9598 48.9518C83.9666 50.6465 82.6025 51.9962 80.8674 53.001C79.1623 53.9761 77.2212 54.4578 75.0442 54.4463ZM75.4187 51.3168C77.1484 51.326 78.6864 50.9316 80.0327 50.1335C81.4088 49.3356 82.4883 48.2379 83.2711 46.8403C84.0839 45.4131 84.495 43.8198 84.5043 42.0602C84.5138 40.2709 84.1197 38.6733 83.322 37.2673C82.554 35.8615 81.4863 34.7524 80.1187 33.9399C78.7812 33.0977 77.2475 32.6721 75.5178 32.6629C73.8179 32.6538 72.2799 33.0632 70.9036 33.8909C69.5275 34.6888 68.4331 35.7865 67.6205 37.1839C66.8078 38.5812 66.3967 40.1746 66.3872 41.964C66.3779 43.7235 66.772 45.3211 67.5696 46.7569C68.3673 48.1628 69.45 49.272 70.8175 50.0845C72.1851 50.897 73.7188 51.3078 75.4187 51.3168ZM86.0946 54.2813C85.5876 54.2786 85.1709 54.1273 84.8444 53.8273C84.5181 53.4975 84.3563 53.0792 84.359 52.5722L84.3997 44.9227L85.2684 41.3933L87.9041 42.0783L87.8482 52.5907C87.8455 53.0977 87.6793 53.5143 87.3495 53.8406C87.0199 54.1371 86.6016 54.284 86.0946 54.2813ZM101.427 54.3628C99.8468 54.3544 98.4322 53.9741 97.1836 53.2219C95.9649 52.4698 95.001 51.4507 94.2921 50.1645C93.5833 48.8486 93.2334 47.3555 93.2423 45.6855L93.3585 23.8107C93.3612 23.3037 93.5126 22.887 93.8125 22.5605C94.1423 22.2342 94.5607 22.0724 95.0677 22.0751C95.5747 22.0778 95.9913 22.2441 96.3176 22.5739C96.6439 22.9037 96.8057 23.322 96.803 23.829L96.6868 45.7038C96.6787 47.2247 97.1194 48.4796 98.0088 49.4685C98.8984 50.4276 100.044 50.9109 101.446 50.9183L102.654 50.9247C103.131 50.9273 103.517 51.0934 103.814 51.423C104.11 51.7526 104.257 52.1709 104.255 52.6779C104.252 53.1849 104.071 53.6015 103.711 53.9276C103.352 54.2239 102.904 54.3707 102.367 54.3678L101.427 54.3628ZM90.3981 33.7261C89.9507 33.7238 89.5787 33.5876 89.2819 33.3176C88.9852 33.0178 88.838 32.6591 88.8402 32.2416C88.8426 31.7943 88.9936 31.4372 89.2933 31.1704C89.5931 30.8737 89.9667 30.7266 90.414 30.729L101.821 30.7896C102.268 30.792 102.64 30.9431 102.937 31.2429C103.234 31.5129 103.381 31.8715 103.379 32.3189C103.376 32.7364 103.225 33.0935 102.926 33.3901C102.626 33.6569 102.252 33.7891 101.805 33.7868L90.3981 33.7261ZM117.814 54.7183C115.696 54.7071 113.805 54.2646 112.14 53.3908C110.474 52.4873 109.154 51.183 108.179 49.4779C107.234 47.7729 106.768 45.6977 106.781 43.2523L106.842 31.6215C106.845 31.1444 107.011 30.7426 107.341 30.4163C107.671 30.09 108.074 29.9281 108.551 29.9307C109.058 29.9334 109.475 30.0996 109.801 30.4294C110.127 30.7592 110.289 31.1627 110.287 31.6398L110.225 43.2706C110.215 45.1196 110.55 46.6423 111.23 47.8389C111.939 49.0356 112.889 49.9353 114.078 50.5381C115.298 51.1411 116.668 51.4466 118.189 51.4547C119.65 51.4624 120.964 51.1861 122.13 50.6256C123.326 50.0654 124.27 49.295 124.961 48.3145C125.652 47.334 126.001 46.2175 126.007 44.9649L128.468 44.978C128.368 46.8563 127.838 48.5385 126.875 50.0246C125.943 51.481 124.684 52.6374 123.099 53.4938C121.514 54.3205 119.752 54.7286 117.814 54.7183ZM127.657 54.5022C127.15 54.4995 126.733 54.3482 126.407 54.0482C126.11 53.7186 125.963 53.2854 125.966 52.7486L126.078 31.7238C126.081 31.2168 126.232 30.815 126.532 30.5183C126.861 30.192 127.28 30.0302 127.787 30.0329C128.294 30.0356 128.71 30.2018 129.037 30.5316C129.363 30.8316 129.525 31.2351 129.522 31.7421L129.411 52.7669C129.408 53.3037 129.241 53.7352 128.912 54.0615C128.582 54.358 128.164 54.5049 127.657 54.5022ZM136.27 39.4723C136.369 37.6238 136.855 35.9712 137.728 34.5145C138.63 33.058 139.785 31.9159 141.191 31.0883C142.627 30.2609 144.209 29.8518 145.939 29.861C147.311 29.8683 148.369 30.0677 149.112 30.4594C149.856 30.851 150.136 31.4192 149.953 32.1638C149.831 32.6105 149.621 32.9076 149.322 33.0551C149.053 33.2028 148.71 33.2606 148.292 33.2286C147.905 33.1967 147.458 33.1645 146.951 33.132C145.281 32.974 143.789 33.145 142.474 33.645C141.19 34.1154 140.157 34.8555 139.376 35.8653C138.625 36.8753 138.246 38.0811 138.238 39.4828L136.27 39.4723ZM136.458 54.549C135.922 54.5461 135.505 54.3948 135.208 54.095C134.912 53.7952 134.765 53.3769 134.768 52.8401L134.88 31.7705C134.882 31.2337 135.034 30.817 135.334 30.5204C135.633 30.2237 136.052 30.0768 136.588 30.0797C137.125 30.0825 137.542 30.2339 137.839 30.5337C138.135 30.8335 138.282 31.2518 138.279 31.7886L138.167 52.8581C138.164 53.395 138.013 53.8117 137.713 54.1083C137.413 54.405 136.995 54.5518 136.458 54.549ZM173.543 54.7461C173.036 54.7434 172.619 54.5772 172.293 54.2474C171.967 53.9176 171.805 53.5141 171.807 53.0369L171.869 41.4062C171.879 39.5572 171.529 38.0344 170.82 36.8376C170.14 35.6411 169.191 34.7414 167.971 34.1384C166.781 33.5356 165.426 33.2302 163.905 33.2221C162.444 33.2143 161.115 33.4906 159.919 34.0509C158.753 34.6113 157.825 35.3818 157.133 36.3623C156.442 37.3428 156.093 38.4593 156.087 39.7119L153.626 39.6988C153.696 37.8203 154.212 36.1529 155.174 34.6967C156.136 33.2106 157.41 32.0543 158.995 31.2277C160.58 30.3712 162.342 29.9481 164.28 29.9584C166.398 29.9697 168.289 30.4271 169.954 31.3307C171.62 32.2044 172.925 33.4937 173.87 35.1987C174.846 36.9038 175.327 38.9791 175.314 41.4245L175.252 53.0552C175.249 53.5324 175.083 53.9341 174.753 54.2604C174.424 54.5867 174.02 54.7486 173.543 54.7461ZM154.307 54.6439C153.771 54.641 153.339 54.4896 153.013 54.1896C152.716 53.86 152.569 53.4417 152.572 52.9347L152.684 31.9099C152.686 31.3731 152.838 30.9564 153.138 30.6597C153.467 30.3334 153.901 30.1717 154.438 30.1745C154.944 30.1772 155.346 30.3434 155.643 30.673C155.969 30.973 156.131 31.3914 156.128 31.9282L156.016 52.953C156.014 53.46 155.847 53.8766 155.518 54.2029C155.218 54.4996 154.814 54.6466 154.307 54.6439Z" fill="#25291C"/>
<circle cx="76" cy="42" r="6" fill="#EB8F44"/>
<path d="M29.2117 30.5151L29.2119 15.5695C29.212 8.15452 23.2013 2.14365 15.7863 2.1436V2.1436V2.1436C8.7742 2.1436 2.89971 7.62112 2.83618 14.633C2.83322 14.9589 2.83165 15.277 2.83165 15.5851" stroke="#EB8F44" stroke-width="3.12742"/>
<path d="M2.00154 30.8097L1.93293 40.0989C1.87771 47.5751 7.86889 53.6927 15.3446 53.7935V53.7935C22.7667 53.8935 28.8981 48.0228 29.1205 40.6034L29.1643 39.1414" stroke="#25291C" stroke-width="3.12742"/>
<path d="M23.0932 26.5714L23.0749 39.6916C23.0692 43.8004 19.7071 47.1129 15.5986 47.0575V47.0575C11.5428 47.0028 8.29257 43.6835 8.32318 39.6274L8.40008 29.4409C8.42005 26.7958 5.39218 25.2823 3.28817 26.8857V26.8857C2.49802 27.4878 2.03426 28.4243 2.03428 29.4177L2.03431 31.059" stroke="#25291C" stroke-width="3.12742"/>
<path d="M15.7439 8.84766L15.7181 7.28416L15.7437 7.28374L15.7693 7.28415L15.7439 8.84766ZM15.3098 8.85482L15.3356 10.4183L15.3098 8.85482ZM10.0648 21.0967C10.0648 21.9603 9.36469 22.6604 8.50107 22.6604C7.63746 22.6604 6.93736 21.9603 6.93736 21.0967L10.0648 21.0967ZM15.7697 10.4112L15.3356 10.4183L15.284 7.29132L15.7181 7.28416L15.7697 10.4112ZM10.0648 15.7767V21.0967L6.93736 21.0967L6.93736 15.7767L10.0648 15.7767ZM21.532 26.8303L21.532 18.3029H24.6594L24.6594 26.8303H21.532ZM21.532 18.3029V16.3199H24.6594V18.3029H21.532ZM6.93736 15.7767C6.93736 11.1443 10.6522 7.36771 15.284 7.29132L15.3356 10.4183C12.4106 10.4666 10.0648 12.8514 10.0648 15.7767L6.93736 15.7767ZM15.7693 7.28415C20.7024 7.36431 24.6594 11.3862 24.6594 16.3199H21.532C21.532 13.0936 18.9444 10.4636 15.7185 10.4112L15.7693 7.28415Z" fill="#25291C"/>
<ellipse cx="2.11291" cy="2.1072" rx="2.11291" ry="2.1072" transform="matrix(0.999985 0.00543151 -0.00547953 0.999985 27.0996 36.8262)" fill="#25291C"/>
<ellipse cx="2.11291" cy="2.1072" rx="2.11291" ry="2.1072" transform="matrix(0.999985 0.00543151 -0.00547953 0.999985 27.0234 28)" fill="#EB8F44"/>
<ellipse cx="1.72934" cy="1.72876" rx="1.72934" ry="1.72876" transform="matrix(0.999985 0.00543151 -0.00547953 0.999985 1.40039 19.7812)" fill="#EB8F44"/>
<circle cx="3.08495" cy="15.0849" r="2.08495" fill="#EB8F44"/>
</svg>
